<?xml version="1.0" encoding="utf-8"?>
<!-- Generator: Adobe Illustrator 16.0.0, SVG Export Plug-In . SVG Version: 6.00 Build 0)  -->
<!DOCTYPE svg PUBLIC "-//W3C//DTD SVG 1.1//EN" "http://www.w3.org/Graphics/SVG/1.1/DTD/svg11.dtd">
<svg version="1.1" id="Layer_1" xmlns="http://www.w3.org/2000/svg" xmlns:xlink="http://www.w3.org/1999/xlink" x="0px" y="0px"
	 width="648.734676481" height="154.146222833" viewBox="0 0 1001.197 237.895" enable-background="new 0 0 1001.197 237.895"
	 xml:space="preserve">
<g>
	<g>
		<path fill="#F5EA14" d="M569.48,236.559c-0.324,0-0.648-0.118-0.903-0.353l-5.178-4.755l-4.68-1.128h-3.134
			c-0.408,0-0.794-0.187-1.047-0.507l-1.385-1.748l-5.88-1.145l-9.653-1.106c-0.315-0.036-0.608-0.184-0.825-0.416l-3.029-3.25
			c-0.182-0.195-0.301-0.44-0.342-0.704l-0.68-4.332l-1.588-3.094l-1.546-1.546c-0.151-0.151-0.265-0.338-0.329-0.543l-2.1-6.664
			l-2.032-4.015l-2.389-3.045l-2.007-0.464c-0.096,0.06-0.201,0.107-0.313,0.142c-0.13,0.04-0.263,0.06-0.394,0.06
			c-0.434,0-0.852-0.212-1.104-0.585l-1.604-2.357c-0.102-0.148-0.172-0.315-0.206-0.492l-1.3-6.589l-2.387-4.689l-4.356-3.932
			c-0.088-0.079-0.165-0.17-0.229-0.269l-13.3-20.65l-3.306-3.558l-3.329-1.581l-4.288-2.36l-11.594-2.938l-13.852,8.105
			l-6.416,10.235c-0.248,0.397-0.681,0.626-1.131,0.626c-0.133,0-0.266-0.02-0.396-0.06l-2.583-0.802
			c-0.077-0.024-0.153-0.056-0.226-0.094l-1.641-0.861l-4.194-0.421c-0.385-0.038-0.734-0.242-0.958-0.558l-1.996-2.825
			l-2.578-1.743l-7.359-1.114c-0.482-0.073-0.886-0.402-1.054-0.859l-1.122-3.045l-4.707-3.867
			c-0.032-0.026-0.063-0.055-0.092-0.083l-1.155-1.145l-6.202-1.087c-0.639-0.112-1.105-0.668-1.105-1.316v-12.453l-1.354-4.479
			l-15.214-15.15c-0.029-0.03-0.059-0.062-0.086-0.095l-4.639-5.604l-5.152-4.291l-6.211-3.412l-3.864-1.952
			c-0.356-0.18-0.613-0.51-0.7-0.899l-1.044-4.642c-0.079-0.349-0.015-0.714,0.179-1.015s0.498-0.511,0.848-0.585l6.035-1.277
			c0.092-0.019,0.184-0.029,0.277-0.029c0.013,0,10.959,0.318,10.959,0.318l4.707-0.611c0.057-0.007,0.113-0.011,0.172-0.011
			c0.041,0,0.082,0.002,0.124,0.006l13.356,1.25l17.736,0.619l17.979-0.612l1.049-0.669l0.432-22.174
			c0.003-0.17,0.039-0.338,0.105-0.494l2.566-6.073v-1.739l-2.363-2.835c-0.32-0.386-0.398-0.92-0.201-1.381l1.227-2.865V17.19
			l0.625-13.6c0.031-0.688,0.581-1.239,1.27-1.273l20.039-0.98l29.354,0.487l2.727-0.469c0.075-0.013,0.151-0.02,0.227-0.02
			c0.317,0,0.627,0.113,0.871,0.323c0.302,0.26,0.473,0.641,0.465,1.04l-0.525,26.733l5.531,7.987l1.118-0.514
			c0.175-0.081,0.365-0.122,0.558-0.122h8.816c0.561,0,1.061,0.35,1.254,0.875l1.431,3.895l3.001,1.644h5.594l1.272-0.814
			c0.216-0.138,0.466-0.21,0.72-0.21c0.058,0,0.115,0.004,0.173,0.011l7.838,1.024c0.096,0.013,0.189,0.035,0.279,0.068l2.225,0.801
			c0.53,0.19,0.884,0.693,0.884,1.257v2.411l1.915,2.042h4.969l1.201-0.449c0.15-0.056,0.309-0.084,0.468-0.084
			c0.073,0,0.146,0.006,0.22,0.018l3.205,0.534l6.057,0.554l3.654-3.576c0.25-0.245,0.585-0.381,0.935-0.381h1.514
			c0.176,0,0.35,0.035,0.512,0.102l10.711,4.441h0.911l5.673-5.132c0.249-0.225,0.569-0.345,0.896-0.345
			c0.113,0,0.228,0.014,0.34,0.044l30.641,8.062c0.367,0.097,0.676,0.344,0.849,0.682l1.659,3.231l0.487,0.406h1.296
			c0.258,0,0.51,0.075,0.727,0.215l1.514,0.98c0.38,0.246,0.609,0.668,0.609,1.121v1.96c0,0.184-0.038,0.365-0.111,0.534
			l-2.295,5.266v2.093l1.819,1.75l2.559,1.085l5.624,0.865c0.128,0.02,0.251,0.058,0.368,0.113l4.898,2.316
			c0.109,0.052,0.212,0.118,0.304,0.198l4.008,3.473c0.083,0.072,0.157,0.155,0.221,0.245l2.674,3.83
			c0.034,0.05,0.065,0.102,0.094,0.156l1.779,3.475c0.061,0.119,0.104,0.246,0.126,0.377l0.533,3.027
			c0.035,0.199,0.024,0.404-0.03,0.599l-1.425,4.988c-0.016,0.056-0.035,0.11-0.058,0.164l-1.621,3.751l-1.046,7.567
			c-0.015,0.105-0.041,0.208-0.08,0.307l-1.332,3.386c-0.05,0.126-0.118,0.244-0.204,0.351l-3.606,4.463l-0.523,1.4l0.999,2.065
			c0.227,0.469,0.16,1.026-0.17,1.429l-2.273,2.774l-1.76,4.532l-1.01,4.121v3.49c0,0.558-0.347,1.057-0.868,1.252l-5.881,2.195
			l-4.692,2.559l-4.17,3.561c-0.246,0.211-0.555,0.32-0.867,0.32c-0.189,0-0.381-0.04-0.56-0.123
			c-0.473-0.218-0.776-0.691-0.776-1.213v-4.118l-0.233-0.104l-2.104,1.052l-4.345,7.524l1.96,2.591
			c0.232,0.307,0.321,0.699,0.243,1.077c-0.079,0.377-0.315,0.702-0.651,0.892L607.801,157l-0.409,1.907
			c-0.071,0.332-0.268,0.625-0.547,0.818l-8.373,5.788c-0.044,0.03-0.089,0.058-0.136,0.083l-12.826,6.771l-8.034,4.668
			l-5.592,6.575v3.538l1.269,2.378c0.104,0.193,0.157,0.409,0.157,0.629v1.07c0,0.256-0.073,0.506-0.211,0.721l-1.31,2.042
			l-1.015,3.978c-0.057,0.219-0.166,0.42-0.32,0.584l-5.07,5.404v0.886l5.048,5.131c0.246,0.249,0.384,0.586,0.384,0.937v6.956
			l5.068,12.494c0.217,0.535,0.065,1.149-0.376,1.522l-5.166,4.363C570.092,236.454,569.787,236.559,569.48,236.559z"/>
		<path d="M505.441,2.672l-0.533,27.165l6.414,9.264l2.137-0.981h8.816l1.604,4.366l3.74,2.048h6.326l1.602-1.024l7.838,1.024
			l2.225,0.801v2.939l2.672,2.85h5.789l1.428-0.534l3.205,0.534l6.77,0.623l4.096-4.008h1.514l10.957,4.543h1.691l6.055-5.478
			l30.641,8.062l1.783,3.473l1.068,0.889h1.779l1.514,0.98v1.96l-2.406,5.521v2.939l2.406,2.315l2.939,1.247l5.789,0.891
			l4.898,2.316l4.008,3.473l2.674,3.83l1.779,3.475l0.533,3.027l-1.424,4.988l-1.693,3.918l-1.07,7.748l-1.332,3.386l-3.742,4.632
			l-0.801,2.138l1.248,2.581l-2.408,2.939l-1.869,4.812l-1.068,4.362v3.651l-5.969,2.229l-4.898,2.671l-4.275,3.651v-4.986
			l-1.604-0.712l-3.025,1.513l-4.988,8.64l2.494,3.297l-6.145,3.473l-0.535,2.494l-8.373,5.788l-12.826,6.771l-8.279,4.81
			l-6.059,7.124v4.363l1.426,2.673v1.07l-1.426,2.224l-1.068,4.187l-5.432,5.79v1.961l5.432,5.521v7.217l5.166,12.735l-5.166,4.363
			l-5.432-4.989l-5.17-1.246h-3.293l-1.691-2.136l-6.416-1.249l-9.705-1.112l-3.029-3.25l-0.713-4.544l-1.781-3.471l-1.693-1.694
			l-2.133-6.769l-2.141-4.229l-2.762-3.52l-3.473-0.804v0.4l-1.604-2.357l-1.336-6.771l-2.582-5.075l-4.541-4.098l-13.363-20.75
			l-3.561-3.831l-3.561-1.691l-4.367-2.406l-12.289-3.115l-14.607,8.548l-6.59,10.513l-2.584-0.802l-1.869-0.982l-4.453-0.446
			l-2.139-3.024l-3.029-2.048l-7.658-1.16l-1.246-3.385l-4.988-4.098l-1.451-1.439l-6.615-1.159v-12.65l-1.51-4.99l-15.451-15.388
			l-4.719-5.699l-5.346-4.452l-6.322-3.475l-3.906-1.974l-1.043-4.642l6.035-1.277l11.025,0.32l4.813-0.625l13.356,1.25
			l17.813,0.624l18.436-0.624l1.961-1.25l0.445-22.89l2.672-6.323v-2.494l-2.672-3.207l1.334-3.117V17.19l0.623-13.539l20.041-0.98
			l29.391,0.491L505.441,2.672 M505.441,0c-0.15,0-0.303,0.013-0.453,0.039l-2.603,0.448L473.245,0c-0.015,0-0.029,0-0.044,0
			c-0.043,0-0.088,0.001-0.131,0.003l-20.04,0.98c-1.376,0.067-2.476,1.17-2.538,2.546l-0.623,13.539
			c-0.002,0.041-0.004,0.082-0.004,0.123v36.412l-1.119,2.613c-0.395,0.924-0.239,1.991,0.404,2.763l2.053,2.463v0.985l-2.462,5.824
			c-0.132,0.313-0.204,0.648-0.21,0.988l-0.418,21.459l-0.137,0.087l-17.614,0.596l-17.643-0.618l-13.28-1.243
			c-0.082-0.008-0.166-0.012-0.248-0.012c-0.115,0-0.23,0.007-0.345,0.022l-4.602,0.598l-10.814-0.314
			c-0.026,0-0.052-0.001-0.077-0.001c-0.187,0-0.371,0.02-0.554,0.058l-6.035,1.277c-0.698,0.148-1.31,0.57-1.695,1.171
			c-0.386,0.602-0.515,1.333-0.358,2.029l1.043,4.642c0.176,0.779,0.689,1.438,1.402,1.799l3.863,1.952l6.059,3.329l4.957,4.129
			l4.561,5.509c0.055,0.065,0.113,0.129,0.174,0.189l14.974,14.912l1.2,3.968v12.255c0,1.298,0.933,2.408,2.211,2.632l5.789,1.015
			l0.857,0.85c0.059,0.059,0.121,0.114,0.186,0.167l4.427,3.638l0.996,2.704c0.337,0.914,1.144,1.572,2.106,1.718l7.062,1.07
			l2.126,1.437l1.856,2.626c0.446,0.632,1.146,1.039,1.915,1.116l3.938,0.395l1.41,0.741c0.145,0.076,0.295,0.139,0.451,0.187
			l2.582,0.802c0.262,0.081,0.529,0.12,0.793,0.12c0.901,0,1.766-0.458,2.264-1.253l6.241-9.957l13.097-7.663l10.896,2.762
			l4.066,2.24c0.047,0.026,0.094,0.051,0.143,0.073l3.099,1.472l3.051,3.283l13.235,20.551c0.127,0.199,0.281,0.379,0.456,0.537
			l4.174,3.767l2.189,4.304l1.265,6.407c0.069,0.353,0.21,0.688,0.412,0.985l1.604,2.357c0.507,0.745,1.341,1.169,2.209,1.169
			c0.262,0,0.526-0.038,0.786-0.118c0.018-0.006,0.036-0.012,0.054-0.018l1.112,0.258l2.018,2.571l1.923,3.799l2.066,6.56
			c0.13,0.41,0.355,0.782,0.659,1.086l1.397,1.398l1.394,2.716l0.646,4.12c0.083,0.527,0.321,1.018,0.686,1.408l3.029,3.25
			c0.433,0.465,1.019,0.76,1.649,0.832l9.602,1.101l5.344,1.04l1.077,1.361c0.507,0.64,1.278,1.013,2.095,1.013h2.976l4.189,1.01
			l4.922,4.521c0.51,0.469,1.158,0.704,1.808,0.704c0.612,0,1.226-0.209,1.724-0.631l5.166-4.363
			c0.884-0.745,1.187-1.975,0.752-3.045l-4.97-12.253v-6.695c0-0.701-0.275-1.374-0.768-1.874l-4.572-4.647l4.616-4.922
			c0.309-0.329,0.529-0.73,0.641-1.167l0.962-3.769l1.192-1.86c0.276-0.431,0.423-0.931,0.423-1.442v-1.07
			c0-0.438-0.108-0.87-0.314-1.258l-1.111-2.083v-2.713l5.125-6.026l7.836-4.552l12.778-6.745c0.094-0.05,0.185-0.104,0.272-0.165
			l8.373-5.788c0.56-0.387,0.95-0.973,1.093-1.638l0.283-1.319l5.099-2.882c0.671-0.379,1.146-1.029,1.302-1.784
			c0.156-0.754-0.021-1.54-0.485-2.154l-1.425-1.884l3.701-6.409l0.044-0.022v2.177c0,1.043,0.606,1.99,1.553,2.427
			c0.358,0.165,0.739,0.245,1.118,0.245c0.625,0,1.243-0.219,1.736-0.64l4.063-3.471l4.487-2.447l5.791-2.162
			c1.045-0.39,1.737-1.388,1.737-2.503v-3.329l0.95-3.88l1.652-4.252l2.138-2.61c0.66-0.805,0.792-1.92,0.339-2.856l-0.75-1.552
			l0.248-0.661l3.47-4.296c0.171-0.211,0.309-0.447,0.408-0.7l1.332-3.386c0.078-0.197,0.132-0.403,0.16-0.613l1.021-7.387
			l1.55-3.584c0.046-0.106,0.084-0.215,0.116-0.327l1.424-4.988c0.111-0.389,0.132-0.798,0.063-1.197l-0.533-3.027
			c-0.047-0.263-0.132-0.517-0.254-0.754l-1.779-3.475c-0.055-0.108-0.117-0.212-0.188-0.312l-2.674-3.83
			c-0.126-0.181-0.274-0.346-0.44-0.49l-4.008-3.473c-0.184-0.159-0.389-0.292-0.607-0.396l-4.898-2.316
			c-0.233-0.11-0.481-0.186-0.736-0.226l-5.459-0.84l-2.179-0.923l-1.231-1.185v-1.246l2.184-5.011
			c0.146-0.337,0.223-0.7,0.223-1.067v-1.96c0-0.906-0.459-1.75-1.22-2.243l-1.513-0.98c-0.434-0.28-0.938-0.429-1.453-0.429h-0.76
			l-1.494-2.911c-0.347-0.675-0.964-1.171-1.697-1.364l-30.641-8.062c-0.225-0.059-0.453-0.088-0.68-0.088
			c-0.654,0-1.295,0.241-1.793,0.69l-5.291,4.787h-0.13l-10.466-4.339c-0.324-0.134-0.672-0.204-1.023-0.204h-1.514
			c-0.698,0-1.369,0.273-1.869,0.762l-3.212,3.144l-5.441-0.5l-3.109-0.518c-0.146-0.024-0.292-0.036-0.438-0.036
			c-0.318,0-0.635,0.057-0.936,0.169l-0.976,0.365h-4.148l-1.157-1.235v-1.883c0-1.127-0.707-2.132-1.767-2.514l-2.225-0.801
			c-0.181-0.065-0.368-0.11-0.559-0.135l-7.838-1.024c-0.116-0.015-0.231-0.022-0.347-0.022c-0.508,0-1.008,0.145-1.439,0.421
			l-0.943,0.604h-4.861l-2.262-1.238l-1.258-3.425c-0.386-1.052-1.388-1.75-2.508-1.75h-8.816c-0.385,0-0.766,0.083-1.115,0.244
			l-0.101,0.046l-4.646-6.711l0.517-26.302c0.016-0.797-0.326-1.559-0.931-2.079C506.694,0.226,506.075,0,505.441,0L505.441,0z"/>
	</g>
	<g>
		<path d="M650.582,200.26c-11.623-0.236-21.236-0.533-21.359-0.658c-0.125-0.125-0.182-16.979-0.129-37.452
			c0.059-21.417-0.109-40.109-0.389-44.017c-0.268-3.734-0.836-12.138-1.262-18.676c-0.74-11.323-0.943-13.737-2.107-24.977
			c-1.217-11.783-1.623-17.225-1.311-17.54c0.184-0.187,10.361-0.354,22.613-0.373c17.23-0.026,22.445,0.105,23.01,0.578
			c0.434,0.359,0.859,1.846,1.043,3.635c0.328,3.208,1.107,22.355,1.654,40.778c0.309,10.245,0.402,11.127,1.279,11.771
			c1.633,1.206,4.107,1.605,12.047,1.942c6.789,0.293,7.898,0.232,9.324-0.514l1.613-0.844l-0.326-7.834
			c-0.52-12.37-0.791-16.422-1.238-18.507c-0.344-1.591-0.705-21.088-0.533-28.672l0.047-1.996l4.93-0.294
			c21.563-1.288,38.404-1.411,39.094-0.287c0.141,0.228,0.32,31.527,0.402,69.548c0.109,50.717,0.006,69.42-0.395,70.221
			l-0.545,1.096h-19.379c-10.658,0-19.598-0.135-19.867-0.301c-0.291-0.18-0.664-5.097-0.918-12.127
			c-0.732-20.247-1.332-28.696-2.096-29.467c-0.975-0.981-4.213-1.431-13.055-1.811c-6.377-0.276-7.82-0.215-8.176,0.345
			c-0.24,0.378-0.434,10.909-0.436,23.717v23.038l-1.201,0.054C672.257,200.67,662.205,200.498,650.582,200.26L650.582,200.26z
			 M934.962,196.902c-4.154-0.212-12.301-0.597-18.113-0.85c-5.807-0.26-10.756-0.591-10.998-0.738
			c-0.248-0.153-0.594-12.186-0.789-27.327c-0.189-14.884-0.676-34.045-1.078-42.582c-0.406-8.535-0.928-25.556-1.164-37.83
			c-0.234-12.271-0.58-24.106-0.768-26.3c-0.271-3.2-0.203-4.035,0.34-4.214c1.557-0.51,47.426-1.062,47.754-0.572
			c0.186,0.273,0.268,1.706,0.182,3.182c-1.223,20.88-1.385,29.747-0.846,45.852c0.318,9.335,0.82,25.925,1.117,36.859
			c0.299,10.94,0.75,20.103,0.998,20.373c0.285,0.305,7.23,0.483,18.906,0.483c13.318,0,18.607,0.155,19.014,0.561
			c0.635,0.632,1.334,30.104,0.768,32.347l-0.326,1.289l-23.725-0.075C953.185,197.321,939.111,197.112,934.962,196.902
			L934.962,196.902z M780.498,195.453c-7.344-0.195-15.857-0.236-18.92-0.088l-5.563,0.271l0.016-2.135
			c0.105-15.861-0.521-64.692-0.934-72.458c-0.783-14.797-1.512-34.35-1.883-50.486c-0.252-11.04-0.188-14.196,0.295-14.488
			c0.342-0.205,9.863-0.212,21.16-0.014c18.428,0.322,20.631,0.446,21.391,1.189c0.779,0.763,0.881,4.128,1.277,42.014
			c0.51,48.633,0.518,69.338,0.033,83.866c-0.434,12.988-0.414,12.879-2.168,12.768C794.46,195.849,787.841,195.648,780.498,195.453
			L780.498,195.453z M849.89,195.248c-0.082-0.075-7.58-0.411-16.662-0.749c-9.082-0.333-16.752-0.793-17.045-1.016
			c-0.535-0.416-0.58-1.763-1.627-50.13c-0.254-11.738-0.689-25.486-0.965-30.559c-0.453-8.31-0.797-17.095-1.795-45.453
			l-0.316-9.083l1.314-0.498c0.826-0.316,9.115-0.5,22.375-0.5h21.064l0.367,1.092c0.199,0.6,0.33,24.053,0.287,52.119
			c-0.055,33.848,0.084,51.129,0.408,51.328c1.158,0.715,18.189,1.915,25.389,1.791l7.686-0.138l-0.307,14.202
			c-0.164,7.808-0.412,14.908-0.543,15.774c-0.238,1.548-0.289,1.578-2.771,1.563c-1.391-0.005-10.219,0.083-19.619,0.191
			C857.73,195.296,849.972,195.323,849.89,195.248L849.89,195.248z"/>
	</g>
	<g>
		<path d="M345.13,207.154c-9.87-1.984-18.116-6.868-25.502-15.104c-2.102-2.345-4.074-4.48-4.385-4.746
			c-3.782-3.249-10.611-15.415-14.729-26.239c-3.525-9.274-4.052-12.746-3.996-26.348c0.072-18.357,1.715-25.993,8.789-40.852
			c4.918-10.333,8.602-15.301,16.316-22c7.666-6.659,10.288-8.255,18.421-11.216c21.724-7.911,42.825-3.725,57.704,11.447
			c2.002,2.041,3.766,4.213,3.92,4.833c0.306,1.223-0.381,3.322-3.318,10.129c-2.983,6.917-12.154,23.999-13.266,24.716
			c-0.877,0.564-1.203,0.491-2.666-0.606c-2.607-1.953-7.766-4.421-10.986-5.257c-3.3-0.854-9.443-0.978-12.732-0.257
			c-8.65,1.897-17.026,7.96-19.868,14.382c-2.661,6.02-3.991,16.054-2.927,22.107c1.774,10.098,5.158,17.617,10.176,22.602
			c4.396,4.372,7.228,5.507,13.105,5.261c4.863-0.208,7.158-1.139,9.846-4c3.322-3.538,4.492-5.835,4.262-8.379
			c-0.094-1.022-4.361-2.608-7.811-2.896c-1.818-0.152-3.6-0.456-3.955-0.678c-0.506-0.314-0.647-2.591-0.647-10.475
			c0-5.541,0.165-10.665,0.368-11.385c0.536-1.919,2.242-2.07,15.605-1.407c6.408,0.316,17.105,0.551,23.77,0.52l12.116-0.054
			l0.327,2.581c0.18,1.419,0.487,7.662,0.684,13.874l0.357,11.295l-2.381-0.272c-4.904-0.565-15.775-1.248-16.149-1.018
			c-0.212,0.131-0.509,3.024-0.659,6.433c-0.393,8.986-2.318,16.05-5.921,21.702c-1.588,2.497-6.657,7.631-12.591,12.761
			C367.63,206.19,356.067,209.35,345.13,207.154z M35.419,203.686c-6.303-0.333-24.599-2.597-31.063-3.844l-3.92-0.756
			l-0.324-36.909c-0.203-23.221-0.126-43.926,0.208-55.813C0.61,95.966,0.901,81.462,0.963,74.132l0.115-13.329l3.356-0.322
			c7.863-0.757,29.083-1.981,35.323-2.039l6.76-0.063l0.352,1.695c0.193,0.932,0.696,8.348,1.121,16.478
			c0.423,8.132,0.989,18.819,1.255,23.75c0.265,4.932,0.481,11.965,0.478,15.631l-0.006,6.664h1.171
			c1.575,0,5.584-1.754,7.003-3.062c2.333-2.152,7.277-8.937,9.427-12.931c3.494-6.498,7.479-19.834,8.545-28.595
			c0.304-2.5,0.52-7.831,0.48-11.845l-0.071-7.301l5.652-0.57c3.11-0.313,10.383-0.807,16.166-1.1
			c5.783-0.293,12.556-0.772,15.052-1.066c3.751-0.442,4.616-0.418,4.985,0.13c0.809,1.208-0.455,24.94-1.596,29.99
			c-0.271,1.199-0.672,3.163-0.891,4.362c-0.354,1.941-1.133,5.012-3.562,14.056c-2.638,9.82-8.463,22.231-13.616,29.012
			c-3.947,5.196-3.843,4.848-2.029,6.859c2.945,3.259,6.947,10.613,12.789,23.501c5.771,12.734,12.163,33.701,10.781,35.368
			c-0.577,0.694-4,1.33-11.642,2.158c-2.534,0.274-6.458,0.715-8.725,0.979c-8.855,1.023-18.492,1.598-18.96,1.129
			c-0.26-0.26-1.319-3.831-2.354-7.937c-3.939-15.605-9.202-28.391-14.693-35.698c-2.095-2.784-3.059-3.091-5.122-1.623
			c-0.711,0.505-3.284,1.615-5.718,2.465c-5.125,1.791-5.013,1.591-5.013,8.818c0,2.382-0.224,6.445-0.499,9.03
			c-0.275,2.582-0.709,6.765-0.963,9.3c-0.966,9.599-1.511,14.327-1.75,15.144C44.309,204.058,43.422,204.107,35.419,203.686
			L35.419,203.686z M206.345,199.134c-2.935-0.21-7.994-0.43-11.248-0.489c-3.252-0.062-6.129-0.244-6.393-0.406
			c-0.548-0.341,0.16-23.316,0.926-30.08c0.257-2.268,0.681-13.282,0.945-24.476c0.262-11.197,0.708-29.299,0.992-40.229
			c0.48-18.545,0.17-36.083-0.769-43.46c-0.241-1.899-0.14-2.343,0.626-2.751c1.473-0.789,19.804-0.847,20.744-0.065
			c0.729,0.604,7.018,9.552,7.018,9.982c0,0.108,1.504,2.235,3.344,4.724c1.838,2.49,4.587,6.467,6.109,8.84
			c1.523,2.373,3.146,4.75,3.615,5.283c0.467,0.533,1.262,1.732,1.766,2.667c0.504,0.932,1.045,1.805,1.197,1.938
			c0.154,0.132,1.188,1.55,2.299,3.15c1.111,1.599,2.896,4.107,3.968,5.574s3.226,4.525,4.788,6.796
			c3.132,4.555,4.164,5.639,4.637,4.873c0.168-0.27,0.08-4.479-0.195-9.353c-0.34-6.022-0.345-14.097-0.016-25.207
			c0.268-8.99,0.456-16.514,0.422-16.72c-0.032-0.207-0.035-0.595-0.002-0.864c0.036-0.32,7.189-0.513,20.627-0.558l20.57-0.068
			l0.321,1.463c0.476,2.165-0.313,16.196-1.685,29.943c-1.57,15.753-1.955,19.816-2.432,25.687c-0.291,3.599-0.75,9.162-1.021,12.36
			c-2.05,24.286-3.672,44.767-4.336,54.768c-0.54,8.133-1.303,15.762-1.607,16.063c-0.434,0.435-20.722-1.173-21.53-1.708
			c-0.249-0.165-1.25-1.503-2.221-2.969c-8.052-12.172-31.461-44.104-32.332-44.104c-0.295,0-0.469,5.476-0.463,14.662
			c0.005,8.063-0.254,19.167-0.572,24.675l-0.581,10.013l-1.427,0.287C220.626,199.737,213.242,199.626,206.345,199.134
			L206.345,199.134z M151.41,197.256l-18.154-0.262l-0.076-29.565c-0.043-16.261-0.321-33.707-0.619-38.771
			c-0.838-14.262-2.455-66.112-2.146-68.78l0.276-2.379l19.996,0.314c11.131,0.175,20.553,0.526,21.253,0.793l1.259,0.479
			l0.01,14.188c0.004,7.803,0.21,24.548,0.456,37.208c0.87,44.748,0.745,70.603-0.407,83.607l-0.302,3.391l-1.695,0.02
			C170.326,197.508,161.394,197.401,151.41,197.256L151.41,197.256z"/>
	</g>
	<g>
		<path d="M562.072,182.698c-6.813-0.265-12.758-0.675-13.217-0.917c-0.717-0.372-0.865-4.313-1.047-27.573
			c-0.209-26.026-0.176-27.156,0.832-27.664c0.936-0.471,24.842,0.503,32.08,1.308l2.328,0.259l0.26,7.231
			c0.145,3.976,0.047,7.467-0.217,7.755c-0.264,0.286-4.432,0.539-9.26,0.564c-10.148,0.05-10.354,0.147-10.354,4.936
			c0,4.506,0.355,4.716,8.617,5.061l7.143,0.302v2.325c0,1.616-0.27,2.428-0.889,2.658c-0.492,0.184-3.354,0.333-6.359,0.333
			c-7.219,0-7.613,0.421-6.15,6.586c0.961,4.046,1.813,4.433,10.955,4.976c4.203,0.251,7.986,0.733,8.408,1.072
			c0.586,0.475,0.684,1.615,0.418,4.808c-0.572,6.81-0.438,6.666-6.227,6.555C576.677,183.221,568.882,182.962,562.072,182.698z
			 M461.355,182.237c-1.064-0.735-1.168-1.516-1.502-11.362c-0.197-5.818-0.627-13.756-0.957-17.646
			c-0.785-9.273-0.834-9.325-9.053-10.094c-3.303-0.307-6.48-0.81-7.063-1.114c-0.969-0.517-1.039-1.166-0.898-8.313l0.154-7.76
			l11.076,0.181c6.094,0.099,16.557,0.347,23.26,0.548l12.184,0.367l0.188,2.183c0.104,1.203,0.02,4.673-0.186,7.71l-0.375,5.524
			l-5.072,0.376c-8.877,0.662-10.635,2.754-10.584,12.609c0.018,3.305,0.365,8.063,0.771,10.582
			c0.707,4.373,0.523,13.999-0.307,16.134C472.527,183.354,463.06,183.416,461.355,182.237L461.355,182.237z M526.462,182.591
			c-0.158-0.159-0.287-2.956-0.287-6.208c0-8.957,0.439-8.486-8.344-8.939c-9.129-0.475-8.854-0.699-8.377,6.821
			c0.316,4.949,0.26,5.396-0.803,6.492c-1.195,1.232-3.682,1.502-7.621,0.832c-1.891-0.321-1.957-0.412-2.27-3.151
			c-0.719-6.251-2.975-43.479-2.98-49.151l-0.006-2.939l7.203,0.223c4.787,0.149,7.426,0.455,7.867,0.908
			c0.482,0.501,0.662,3.621,0.662,11.555c0,8.403,0.166,11.075,0.732,11.779c1.076,1.34,11.857,1.34,12.938,0.004
			c0.555-0.691,0.752-3.461,0.828-11.588c0.053-5.876,0.242-10.831,0.42-11.014c0.516-0.533,6.982-0.82,9.543-0.423l2.346,0.362
			l0.332,10.547c0.182,5.801,0.48,18.11,0.662,27.348l0.326,16.801l-6.441,0.019c-3.549,0.01-6.578-0.114-6.734-0.276H526.462z
			 M486.451,115.557c-8.057-1.988-12.678-4.971-16.086-10.388c-2.184-3.474-4.297-9.773-4.789-14.28
			c-0.525-4.836,0.578-12.009,2.473-16.055c1.898-4.062,6.51-8.636,10.832-10.75c3.654-1.788,10.381-2.891,17.879-2.937
			c5.049-0.029,6.135,0.146,9.561,1.546c7.889,3.221,11.219,7.287,13.029,15.915c2.908,13.853-3.383,30.155-13.879,35.965
			c-2.355,1.304-3.451,1.52-8.818,1.736C491.919,116.504,489.589,116.333,486.451,115.557L486.451,115.557z M498.656,102.287
			c4.514-2.126,7.584-7.205,7.592-12.559c0.006-2.935-0.227-3.719-1.703-5.793c-2.641-3.714-6.246-5.988-9.49-5.988
			c-6.904,0-11.781,5.062-12.234,12.694c-0.184,3.136-0.021,3.927,1.305,6.301c1.699,3.048,3.299,4.434,6.428,5.569
			c2.93,1.061,5.529,0.988,8.104-0.222V102.287z M534.751,115.578l-7.871-0.18l0.301-26.834c0.164-14.758,0.348-26.892,0.408-26.961
			c0.266-0.321,8.271-0.676,23.348-1.038l16.391-0.395l-0.395,6.227c-0.219,3.423-0.533,6.438-0.701,6.698
			c-0.172,0.263-2.566,0.478-5.324,0.479c-5.102,0.006-12.191,0.852-12.916,1.543c-0.219,0.209-0.576,2.271-0.793,4.58
			c-0.363,3.879-0.297,4.292,0.895,5.43c1.207,1.151,1.67,1.215,7.141,0.98c3.219-0.137,6.24-0.409,6.717-0.605
			c0.479-0.195,1.201-0.15,1.611,0.101c0.867,0.525,1.623,7.492,1.053,9.661c-0.35,1.336-0.613,1.44-3.682,1.471
			c-1.82,0.018-5.645,0.47-8.494,1.003c-6.793,1.27-7.049,1.651-7.408,11.08c-0.24,6.24-0.365,6.887-1.338,6.912
			C543.103,115.744,539.08,115.676,534.751,115.578L534.751,115.578z"/>
	</g>
	<g>
		<path fill="#EC2024" d="M683.294,191.291c-1.906,0-11.133-0.159-21.938-0.378c-21.519-0.436-21.66-0.579-22.082-1.003
			c-0.451-0.451-0.573-0.574-0.476-37.804c0.056-20.932-0.11-39.565-0.386-43.346c-0.264-3.688-0.831-11.984-1.255-18.436
			c-0.742-11.231-0.938-13.531-2.092-24.604c-1.817-17.423-1.549-17.691-0.961-18.278c0.399-0.398,0.688-0.684,23.352-0.718
			l3.928-0.003c17.999,0,19.012,0.245,19.738,0.849c0.958,0.791,1.33,3.086,1.467,4.384c0.333,3.25,1.104,22.094,1.65,40.329
			c0.228,7.507,0.354,10.374,0.78,10.685c1.381,1.008,3.817,1.37,11.336,1.687c2.253,0.096,4.012,0.159,5.278,0.159
			c2.212,0,2.759-0.201,3.397-0.532l0.931-0.481l-0.292-6.97c-0.511-12.047-0.782-16.098-1.208-18.058
			c-0.389-1.784-0.718-21.54-0.557-28.574l0.045-1.969c0.015-0.623,0.504-1.131,1.126-1.168l4.906-0.292
			c11.349-0.671,21.655-1.042,29.021-1.042c10.158,0,10.575,0.674,10.979,1.325c0.194,0.318,0.434,0.708,0.579,69.254
			c0.141,65.199-0.107,69.014-0.522,69.837l-0.539,1.078c-0.203,0.406-0.617,0.662-1.071,0.662h-19.287
			c-19.629,0-20.112-0.298-20.402-0.477c-0.62-0.378-1.035-0.63-1.482-12.942c-0.261-7.184-0.949-26.106-1.814-28.341
			c-1.243-0.905-8.556-1.218-12.115-1.37c-2.562-0.109-4.126-0.156-5.229-0.156c-0.958,0-1.478,0.038-1.76,0.078
			c-0.167,2.152-0.331,10.746-0.333,22.626v22.733c0,0.641-0.504,1.168-1.144,1.196l-1.195,0.054
			C683.608,191.289,683.482,191.291,683.294,191.291z M976.15,188.051c-12.825-0.039-26.641-0.242-30.797-0.453
			c-4.081-0.209-12.089-0.587-17.797-0.838c-10.69-0.482-11.139-0.753-11.38-0.898c-0.692-0.435-0.999-0.628-1.353-27.978
			c-0.186-14.678-0.661-33.508-1.06-41.976c-0.399-8.477-0.913-25.239-1.146-37.367c-0.23-12.124-0.566-23.731-0.748-25.875
			c-0.258-3.042-0.413-4.877,1.149-5.394c1.485-0.49,28.335-0.814,38.818-0.814c9.011,0,9.038,0.04,9.494,0.711
			c0.487,0.735,0.447,2.749,0.38,3.884c-1.194,20.486-1.356,29.345-0.826,45.136c0.325,9.703,0.816,26.023,1.096,36.38
			c0.275,10.136,0.624,16.97,0.827,19.11c1.776,0.154,7.082,0.305,17.54,0.305c18.633,0,18.936,0.302,19.539,0.904
			c0.398,0.398,0.808,0.809,1.17,16.182c0.06,2.515,0.333,15.146-0.103,16.874l-0.32,1.273c-0.134,0.532-0.612,0.905-1.161,0.905
			C999.473,188.124,976.15,188.051,976.15,188.051z M805.237,186.623c-0.142,0-0.295-0.009-0.463-0.02
			c-0.693-0.043-6.9-0.236-14.225-0.435c-4.001-0.108-8.644-0.173-12.419-0.173c-2.635,0-4.639,0.03-5.797,0.087
			c0,0-5.424,0.268-5.443,0.268c-0.308,0-0.605-0.118-0.829-0.333c-0.237-0.228-0.371-0.544-0.368-0.873l0.016-2.107
			c0.102-15.703-0.505-63.769-0.901-71.43c-0.764-14.689-1.463-33.792-1.823-49.854c-0.32-14.163-0.144-14.727,0.85-15.342
			c0.365-0.225,0.547-0.336,7.175-0.336c3.853,0,8.808,0.051,13.954,0.144c19.222,0.344,20.429,0.43,21.524,1.524
			c1.101,1.104,1.166,1.169,1.587,42.294c0.496,48.305,0.503,68.426,0.031,82.808l-0.011,0.309
			C807.68,185.862,807.656,186.623,805.237,186.623z M863.147,186.01c-1.941,0-2.791,0-3.233-0.065v0.002
			c-0.576-0.076-6.953-0.373-16.252-0.719c-16.646-0.612-17.208-1.041-17.478-1.247c-1.001-0.775-1.001-0.775-2.075-50.394
			c-0.252-11.581-0.677-25.091-0.948-30.115c-0.446-8.162-0.777-16.55-1.771-44.876l-0.314-8.962
			c-0.018-0.513,0.293-0.98,0.773-1.162l1.297-0.491c0.366-0.14,1.493-0.571,22.475-0.571h20.756c0.515,0,0.972,0.329,1.136,0.817
			l0.361,1.078c0.415,1.22,0.354,46.636,0.345,51.811c-0.056,37.058,0.135,47.29,0.288,49.721
			c3.022,0.585,15.709,1.505,22.831,1.505c0.383,0,0.745-0.003,1.085-0.009c0,0,7.59-0.133,7.597-0.133
			c0.318,0,0.624,0.126,0.849,0.353c0.229,0.23,0.355,0.545,0.349,0.87l-0.301,14.013c-0.146,6.901-0.39,14.669-0.548,15.721
			c-0.343,2.211-1.116,2.563-3.425,2.563l-0.619-0.002c-1.634,0-9.885,0.081-19.193,0.188
			C871.603,185.971,866.375,186.01,863.147,186.01z"/>
		<path d="M739.003,46.926c5.963,0,9.646,0.25,9.961,0.758c0.137,0.223,0.32,31.108,0.4,68.626
			c0.107,50.049,0.004,68.505-0.395,69.295l-0.541,1.082h-19.287c-10.605,0-19.506-0.134-19.773-0.299
			c-0.289-0.176-0.662-5.027-0.914-11.966c-0.727-19.979-1.324-28.316-2.084-29.076c-0.969-0.97-4.193-1.412-12.992-1.788
			c-2.387-0.103-4.079-0.158-5.28-0.158c-1.994,0-2.635,0.153-2.854,0.498c-0.242,0.374-0.434,10.765-0.436,23.404v22.733
			l-1.195,0.054c-0.051,0.002-0.158,0.004-0.318,0.004c-1.901,0-11.241-0.162-21.914-0.378c-11.566-0.234-21.133-0.525-21.256-0.649
			c-0.125-0.125-0.182-16.755-0.129-36.957c0.057-21.135-0.107-39.582-0.389-43.436c-0.264-3.686-0.83-11.979-1.254-18.428
			c-0.738-11.175-0.939-13.558-2.096-24.649c-1.213-11.625-1.617-16.997-1.307-17.307c0.186-0.185,10.313-0.35,22.508-0.368
			c1.385-0.002,2.693-0.003,3.926-0.003c14.031,0,18.457,0.144,18.973,0.572c0.432,0.356,0.855,1.824,1.041,3.588
			c0.324,3.166,1.1,22.059,1.645,40.24c0.307,10.107,0.402,10.981,1.271,11.616c1.627,1.188,4.09,1.584,11.992,1.916
			c2.399,0.102,4.087,0.16,5.328,0.16c2.252,0,3.035-0.192,3.949-0.667l1.607-0.831l-0.324-7.733
			c-0.518-12.205-0.787-16.205-1.234-18.262c-0.342-1.569-0.701-20.809-0.529-28.292l0.045-1.969l4.906-0.292
			C721.69,47.277,731.944,46.926,739.003,46.926 M771.008,47.272c3.683,0,8.604,0.047,13.933,0.143
			c17.832,0.319,19.963,0.438,20.699,1.174c0.752,0.754,0.854,4.071,1.236,41.459c0.492,47.987,0.502,68.422,0.031,82.757
			c-0.38,11.635-0.4,12.62-1.671,12.62c-0.129,0-0.271-0.011-0.427-0.021c-0.717-0.044-7.123-0.241-14.229-0.434
			c-4.195-0.113-8.786-0.174-12.451-0.174c-2.544,0-4.643,0.029-5.855,0.089l-5.385,0.267l0.016-2.107
			c0.102-15.652-0.506-63.84-0.902-71.5c-0.76-14.602-1.465-33.896-1.822-49.82c-0.246-10.895-0.184-14.008,0.283-14.297
			C764.633,47.325,767.137,47.272,771.008,47.272 M951.839,47.656c4.978,0,8.413,0.055,8.502,0.186
			c0.18,0.271,0.262,1.685,0.176,3.142c-1.201,20.605-1.361,29.354-0.828,45.246c0.309,9.213,0.805,25.582,1.096,36.373
			c0.293,10.797,0.736,19.836,0.979,20.103c0.283,0.301,7.111,0.478,18.586,0.478c13.092,0,18.291,0.153,18.693,0.555
			c0.623,0.624,1.309,29.704,0.752,31.916l-0.32,1.273l-23.32-0.073c-12.828-0.039-26.664-0.245-30.74-0.452
			c-4.082-0.209-12.094-0.587-17.805-0.838c-5.711-0.258-10.576-0.584-10.814-0.728c-0.242-0.152-0.58-12.023-0.773-26.968
			c-0.186-14.686-0.664-33.595-1.061-42.017c-0.396-8.424-0.912-25.221-1.145-37.333c-0.23-12.107-0.568-23.786-0.752-25.953
			c-0.268-3.156-0.201-3.979,0.332-4.156C914.507,48.043,938.615,47.656,951.839,47.656 M866.376,48.606l0.361,1.078
			c0.201,0.591,0.328,23.735,0.283,51.429c-0.051,33.401,0.086,50.454,0.404,50.651c1.085,0.673,16.322,1.773,23.912,1.773
			c0.39,0,0.759-0.003,1.105-0.009l7.576-0.133l-0.301,14.013c-0.162,7.706-0.406,14.711-0.535,15.567
			c-0.22,1.418-0.279,1.545-2.239,1.545c-0.152,0-0.315-0.001-0.491-0.002c-0.037,0-0.079,0-0.127,0
			c-1.716,0-10.195,0.084-19.209,0.188c-5.758,0.068-10.893,0.105-13.972,0.105c-1.875,0-2.989-0.014-3.019-0.042
			c-0.082-0.074-7.469-0.407-16.42-0.74c-8.951-0.329-16.51-0.783-16.797-1.002c-0.529-0.41-0.57-1.739-1.604-49.468
			c-0.252-11.582-0.68-25.15-0.949-30.153c-0.449-8.201-0.789-16.871-1.77-44.854l-0.314-8.962l1.297-0.491
			c0.814-0.312,8.982-0.494,22.051-0.494H866.376 M900.019,153.396h0.005 M739.003,44.531c-7.389,0-17.72,0.371-29.091,1.044
			l-4.906,0.292c-1.245,0.074-2.225,1.09-2.253,2.336l-0.045,1.969c-0.158,6.867,0.135,26.799,0.583,28.856
			c0.409,1.881,0.675,5.885,1.182,17.854l0.261,6.206l-0.25,0.129c-0.433,0.225-0.771,0.4-2.85,0.4c-1.246,0-2.99-0.063-5.227-0.159
			c-6.632-0.278-9.236-0.596-10.459-1.312c-0.248-1.19-0.376-5.43-0.512-9.899c-0.548-18.257-1.321-37.142-1.656-40.412
			c-0.277-2.635-0.916-4.379-1.898-5.191c-1.034-0.86-1.349-1.121-20.498-1.121c-1.233,0-2.544,0.001-3.93,0.003
			c-5.912,0.009-11.521,0.052-15.793,0.122c-7.576,0.124-7.592,0.139-8.4,0.943c-1.046,1.045-1.264,1.262,0.613,19.253
			c1.152,11.052,1.348,13.348,2.088,24.559c0.437,6.628,1.001,14.886,1.255,18.441c0.274,3.758,0.439,22.353,0.383,43.258
			c-0.025,9.801-0.026,19.042-0.002,26.022c0.012,3.357,0.028,6.086,0.051,7.983c0.044,3.769,0.046,3.916,0.782,4.651
			c0.758,0.765,0.758,0.765,7.957,0.984c4.021,0.122,9.328,0.253,14.943,0.366c10.813,0.22,20.051,0.378,21.963,0.378
			c0.215,0,0.359-0.003,0.429-0.006l1.192-0.054c1.28-0.058,2.288-1.111,2.288-2.393v-22.733c0.001-10.376,0.129-18.336,0.271-21.5
			c0.178-0.004,0.385-0.007,0.624-0.007c1.086,0,2.635,0.047,5.178,0.156c2.366,0.101,9.222,0.394,11.151,1.023
			c0.768,3.71,1.414,21.486,1.634,27.534c0.471,12.957,0.872,13.201,2.063,13.926c0.649,0.4,1.05,0.647,21.018,0.647h19.287
			c0.907,0,1.736-0.513,2.143-1.324l0.541-1.082c0.528-1.047,0.795-1.576,0.647-70.371c-0.039-18.047-0.103-35.203-0.18-48.308
			c-0.122-20.827-0.122-20.827-0.573-21.564C750.23,45.18,749.347,44.531,739.003,44.531L739.003,44.531z M771.008,44.877
			c-6.966,0-7.125,0.098-7.797,0.51c-1.398,0.868-1.497,2.448-1.551,5.166c-0.042,2.11-0.004,5.467,0.126,11.228
			c0.36,16.072,1.06,35.189,1.824,49.89c0.396,7.649,1.002,55.668,0.899,71.36l-0.016,2.105c-0.005,0.659,0.263,1.29,0.737,1.746
			c0.447,0.429,1.042,0.667,1.658,0.667c0.039,0,0.079-0.001,0.118-0.003l5.385-0.267c1.122-0.056,3.159-0.086,5.737-0.086
			c3.766,0,8.396,0.064,12.387,0.173c7.312,0.198,13.499,0.391,14.146,0.43c0.229,0.016,0.409,0.025,0.573,0.025
			c3.031,0,3.414-3.007,3.54-3.995c0.226-1.771,0.322-4.733,0.515-10.635l0.01-0.308c0.474-14.401,0.466-34.535-0.029-82.859
			c-0.427-41.613-0.427-41.613-1.936-43.126c-1.464-1.462-2.09-1.515-22.353-1.878C779.829,44.928,774.866,44.877,771.008,44.877
			L771.008,44.877z M951.839,45.261c-3.725,0-37.12,0.19-39.193,0.874c-2.462,0.814-2.244,3.382-1.969,6.633
			c0.177,2.086,0.518,13.899,0.744,25.796c0.232,12.137,0.747,28.915,1.146,37.4c0.398,8.457,0.873,27.269,1.058,41.935
			c0.095,7.259,0.226,14.031,0.37,19.069c0.07,2.479,0.142,4.436,0.211,5.812c0.123,2.449,0.169,3.365,1.313,4.084
			c0.591,0.356,0.989,0.597,11.981,1.093c5.604,0.246,13.584,0.622,17.791,0.838c4.173,0.212,18.014,0.416,30.854,0.455l23.32,0.073
			c0.003,0,0.006,0,0.008,0c1.098,0,2.055-0.746,2.323-1.812l0.32-1.273c0.448-1.781,0.245-12.617,0.138-17.194
			c-0.373-15.852-0.732-16.211-1.518-16.998c-0.994-0.992-1.261-1.258-20.389-1.258c-10.022,0-14.477-0.132-16.431-0.235
			c-0.202-2.84-0.501-9.221-0.739-18.015c-0.279-10.358-0.771-26.682-1.097-36.387c-0.528-15.747-0.366-24.583,0.826-45.027
			c0.202-3.438-0.359-4.286-0.571-4.604c-0.774-1.141-1.68-1.159-4.365-1.213C956.515,45.276,954.452,45.261,951.839,45.261
			L951.839,45.261z M866.376,46.211h-20.756c-21.203,0-22.312,0.424-22.906,0.652l-1.289,0.488c-0.96,0.363-1.582,1.298-1.546,2.324
			l0.314,8.962c0.992,28.335,1.323,36.728,1.771,44.901c0.27,5.012,0.694,18.504,0.946,30.074
			c0.524,24.216,0.785,36.139,0.991,42.504c0.228,7.035,0.295,7.841,1.54,8.806c0.648,0.494,1.149,0.876,18.176,1.502
			c8.826,0.328,15.099,0.616,16.081,0.704c0.599,0.079,1.579,0.079,3.445,0.079c3.233,0,8.468-0.039,14-0.104
			c9.302-0.107,17.548-0.188,19.181-0.188h0.117l0.501,0.002c2.629,0,4.142-0.57,4.606-3.574c0.194-1.289,0.448-10.425,0.563-15.883
			l0.299-13.901c0.004-0.054,0.005-0.107,0.005-0.162c0-1.323-1.069-2.396-2.393-2.396h-0.005c-0.019,0-0.037,0-0.057,0.001
			l-7.562,0.133c-0.333,0.006-0.688,0.008-1.063,0.008c-6.791,0-17.75-0.795-21.683-1.339c-0.139-3.628-0.29-15.064-0.238-48.687
			c0.021-13.407,0.004-26.155-0.05-35.895c-0.085-15.497-0.189-15.803-0.361-16.309l-0.357-1.068
			C868.321,46.869,867.406,46.211,866.376,46.211L866.376,46.211z"/>
	</g>
	<g>
		<path fill="#EC2024" d="M362.376,198.939c-2.381,0-4.763-0.236-7.08-0.701c-9.987-2.006-18.469-7.024-25.928-15.343
			c-2.396-2.669-4-4.384-4.237-4.595c-3.913-3.361-10.751-15.489-14.931-26.482c-3.568-9.384-4.097-12.856-4.041-26.542
			c0.074-18.41,1.725-26.072,8.828-40.992c4.967-10.436,8.66-15.413,16.465-22.19c7.674-6.667,10.459-8.362,18.631-11.336
			c7.209-2.625,14.426-3.957,21.447-3.957c14.207,0,27.002,5.391,37.002,15.588c0.156,0.158,3.834,3.915,4.191,5.336
			c0.393,1.566-0.234,3.586-3.35,10.806c-2.535,5.874-11.965,23.973-13.6,25.026c-0.431,0.277-0.914,0.535-1.527,0.535
			c-0.84,0-1.56-0.49-2.484-1.184c-2.449-1.835-7.438-4.222-10.468-5.008c-1.654-0.428-4.22-0.684-6.86-0.684
			c-2.063,0-3.908,0.156-5.195,0.439c-8.244,1.809-16.171,7.514-18.848,13.564c-2.539,5.741-3.829,15.455-2.816,21.212
			c1.703,9.7,4.982,17.019,9.746,21.752c3.82,3.796,6.227,4.895,10.728,4.895c0.435,0,0.888-0.011,1.362-0.031
			c4.492-0.191,6.496-0.996,8.93-3.584c2.932-3.125,4.021-5.094,3.918-7.145c-0.686-0.589-3.746-1.766-6.658-2.009
			c-0.84-0.071-3.641-0.344-4.453-0.847c-1.012-0.628-1.209-1.604-1.209-11.401c0-4.083,0.109-10.544,0.41-11.609
			c0.627-2.243,2.584-2.622,6.731-2.622c2.339,0,5.669,0.142,9.948,0.354c5.864,0.29,15.656,0.518,22.29,0.518
			c0,0,13.208-0.057,13.21-0.057c0.605,0,1.117,0.45,1.193,1.051l0.324,2.559c0.184,1.452,0.49,7.669,0.686,13.859l0.354,11.194
			c0.012,0.349-0.13,0.686-0.387,0.922c-0.223,0.206-0.514,0.318-0.814,0.318c-0.045,0-0.091-0.003-0.137-0.008l-2.357-0.271
			c-4.062-0.471-12.203-1.012-14.912-1.046c-0.133,0.967-0.301,2.852-0.408,5.268c-0.396,9.104-2.377,16.333-6.054,22.101
			c-1.65,2.595-6.638,7.662-12.704,12.908C380.268,195.588,371.412,198.939,362.376,198.939z M52.911,195.08
			c-1.368,0-3.417-0.094-6.492-0.256c-6.313-0.336-24.534-2.591-30.945-3.831l-3.884-0.747c-0.562-0.107-0.97-0.597-0.975-1.169
			l-0.32-36.576c-0.201-22.904-0.125-43.596,0.205-55.35c0.29-10.283,0.576-24.6,0.638-31.914l0.113-13.208
			c0.005-0.615,0.474-1.127,1.086-1.186l3.327-0.32c7.859-0.756,28.856-1.968,35.105-2.026c0,0,6.708-0.061,6.712-0.061
			c0.57,0,1.062,0.4,1.177,0.958l0.347,1.68c0.236,1.144,0.761,9.359,1.134,16.509c0.419,8.058,0.979,18.647,1.242,23.532
			c0.266,4.917,0.479,11.896,0.476,15.555l-0.005,5.402c1.223-0.036,4.825-1.559,6.082-2.718c2.203-2.033,7.05-8.691,9.098-12.5
			c3.399-6.321,7.293-19.363,8.333-27.91c0.296-2.447,0.506-7.642,0.468-11.581l-0.07-7.235c-0.006-0.622,0.463-1.146,1.082-1.208
			l5.6-0.563c3.124-0.313,10.338-0.805,16.08-1.095c5.736-0.292,12.391-0.763,14.833-1.051c1.92-0.226,2.954-0.313,3.69-0.313
			c0.859,0,1.816,0.115,2.389,0.967c1.294,1.935-0.52,26.72-1.406,30.65c-0.266,1.171-0.657,3.088-0.873,4.274
			c-0.359,1.963-1.122,4.977-3.551,14.024c-2.642,9.829-8.529,22.367-13.696,29.166l-0.521,0.684
			c-1.347,1.769-2.41,3.166-2.443,3.563c0.041,0.086,0.376,0.453,0.646,0.748l0.243,0.267c3.023,3.349,6.994,10.626,12.875,23.599
			c4.141,9.137,12.824,33.524,10.513,36.31c-0.659,0.793-1.93,1.44-12.331,2.566c-2.508,0.272-6.395,0.71-8.637,0.969
			c-6.468,0.748-13.679,1.292-17.147,1.292c-1.678,0-2.218-0.105-2.627-0.514c-0.175-0.175-0.705-0.704-2.65-8.422
			c-3.881-15.381-8.979-27.792-14.355-34.947c-0.641-0.853-1.558-1.986-2.115-1.986c-0.272,0-0.71,0.214-1.303,0.635
			c-0.919,0.656-3.76,1.829-5.965,2.601l-0.327,0.113c-2.174,0.759-3.07,1.09-3.414,1.694c-0.423,0.745-0.422,2.475-0.421,5.339
			v0.455c0,2.401-0.225,6.472-0.502,9.073c-0.272,2.559-0.701,6.703-0.953,9.21c-1.233,12.272-1.589,14.581-1.775,15.222
			C56.227,195.08,54.465,195.08,52.911,195.08z M228.517,190.766c-3.318,0-7.665-0.17-11.627-0.454
			c-2.91-0.207-7.881-0.423-11.08-0.481c-6.193-0.116-6.74-0.455-6.947-0.583c-0.703-0.437-0.995-0.617-0.596-13.574
			c0.174-5.679,0.529-13.642,0.953-17.39c0.25-2.203,0.667-13.035,0.929-24.146c0.26-11.095,0.702-29.033,0.983-39.865
			c0.476-18.376,0.174-35.609-0.752-42.882c-0.2-1.575-0.39-3.063,1.244-3.938c1.281-0.685,8.548-0.759,11.613-0.759
			c9.281,0,9.932,0.54,10.279,0.83c0.068,0.056,6.186,7.957,7.234,10.311l0.03-0.014c0.149,0.268,1.345,1.976,3.2,4.486
			c1.842,2.496,4.578,6.454,6.099,8.824c1.593,2.481,3.108,4.676,3.475,5.094c0.521,0.592,1.356,1.85,1.903,2.86
			c0.494,0.915,0.899,1.544,0.999,1.666c0.407,0.437,1.509,1.989,2.396,3.264c1.113,1.602,2.869,4.069,3.914,5.5
			c1.068,1.462,3.206,4.496,4.766,6.763c0.477,0.692,1.596,2.321,2.484,3.448c-0.018-1.555-0.099-4.031-0.274-7.138
			c-0.34-6.033-0.345-14.002-0.017-25.081c0.265-8.897,0.433-15.686,0.424-16.422c-0.041-0.316-0.041-0.772,0.002-1.116
			c0.152-1.358,0.172-1.535,21.629-1.606c0,0,20.385-0.066,20.387-0.066c0.564,0,1.053,0.392,1.174,0.943l0.319,1.449
			c0.554,2.534-0.405,17.583-1.648,30.05c-1.559,15.637-1.94,19.677-2.407,25.431c-0.288,3.567-0.744,9.081-1.012,12.252
			c-2.037,24.13-3.643,44.41-4.295,54.247c-1.05,15.798-1.699,16.446-1.943,16.69c-0.404,0.403-0.925,0.424-1.742,0.424
			c-2.137,0-19.795-1.101-21.104-1.964c-0.602-0.405-1.977-2.431-2.539-3.282c-7.115-10.754-24.653-34.74-30.137-41.578
			c-0.082,1.933-0.161,5.432-0.156,11.74c0.004,8.029-0.253,19.029-0.572,24.521l-0.574,9.924c-0.032,0.546-0.429,1.002-0.965,1.109
			l-1.414,0.282C232.373,190.687,230.814,190.766,228.517,190.766z M181.498,188.694c-1.605,0-10.174-0.104-19.509-0.237
			L144,188.195c-0.656-0.01-1.183-0.543-1.184-1.199l-0.076-29.295c-0.042-16.144-0.316-33.35-0.611-38.354
			c-0.854-14.521-2.438-65.633-2.12-68.363l0.274-2.358c0.07-0.607,0.584-1.063,1.193-1.063c0.006,0,19.832,0.312,19.832,0.312
			c2.05,0.032,20.066,0.331,21.469,0.864l1.246,0.474c0.467,0.177,0.775,0.624,0.775,1.123l0.01,14.062
			c0.004,7.687,0.207,24.217,0.453,36.848c0.863,44.432,0.738,70.022-0.408,82.976l-0.301,3.363
			c-0.055,0.615-0.566,1.089-1.186,1.096L181.498,188.694z"/>
		<path d="M127.048,47.102c0.854,0,1.193,0.142,1.391,0.436c0.801,1.197-0.451,24.713-1.581,29.716
			c-0.269,1.189-0.666,3.135-0.883,4.323c-0.352,1.924-1.123,4.966-3.529,13.928c-2.614,9.73-8.386,22.031-13.492,28.75
			c-3.911,5.147-3.81,4.802-2.011,6.794c2.918,3.23,6.884,10.519,12.672,23.289c5.72,12.619,12.054,33.396,10.684,35.046
			c-0.572,0.688-3.963,1.319-11.536,2.14c-2.51,0.272-6.399,0.71-8.645,0.969c-6.661,0.771-13.769,1.284-17.009,1.284
			c-1.028,0-1.667-0.052-1.779-0.163c-0.257-0.257-1.308-3.796-2.333-7.864c-3.903-15.467-9.118-28.133-14.56-35.375
			c-1.277-1.698-2.131-2.467-3.076-2.467c-0.589,0-1.214,0.299-1.999,0.857c-0.705,0.503-3.254,1.603-5.666,2.445
			c-5.08,1.774-4.967,1.575-4.967,8.736c0,2.36-0.223,6.387-0.496,8.946c-0.272,2.561-0.702,6.708-0.954,9.217
			c-0.956,9.513-1.498,14.196-1.733,15.007c-0.156,0.536-0.545,0.763-2.635,0.763c-1.329,0-3.346-0.092-6.429-0.254h-0.001
			c-6.244-0.332-24.375-2.572-30.78-3.811l-3.885-0.747l-0.32-36.576c-0.202-23.007-0.126-43.525,0.204-55.305
			c0.29-10.302,0.577-24.673,0.639-31.938l0.113-13.208l3.327-0.32c7.792-0.75,28.819-1.963,35.001-2.021l6.701-0.061l0.347,1.68
			c0.191,0.923,0.69,8.272,1.111,16.328c0.419,8.059,0.979,18.648,1.242,23.534c0.265,4.887,0.478,11.856,0.474,15.489l-0.006,6.605
			h1.16c1.561,0,5.534-1.74,6.939-3.036c2.312-2.134,7.212-8.854,9.342-12.814c3.462-6.439,7.411-19.654,8.467-28.334
			c0.3-2.478,0.516-7.759,0.477-11.737l-0.07-7.235l5.6-0.563c3.082-0.309,10.289-0.801,16.021-1.091
			c5.729-0.291,12.44-0.766,14.913-1.058C125.212,47.205,126.318,47.102,127.048,47.102 M213.238,47.894
			c4.639,0,9.064,0.18,9.512,0.552c0.721,0.597,6.953,9.464,6.953,9.892c0,0.107,1.49,2.213,3.313,4.681
			c1.821,2.468,4.546,6.409,6.055,8.759c1.508,2.351,3.118,4.708,3.581,5.236c0.464,0.528,1.251,1.717,1.751,2.641
			c0.5,0.925,1.035,1.79,1.187,1.921c0.151,0.132,1.176,1.537,2.278,3.123c1.102,1.585,2.869,4.07,3.931,5.522
			c1.062,1.453,3.196,4.483,4.745,6.735c2.51,3.65,3.659,5.053,4.254,5.053c0.141,0,0.25-0.078,0.34-0.224
			c0.167-0.269,0.08-4.439-0.193-9.269c-0.336-5.966-0.342-13.968-0.016-24.977c0.266-8.909,0.453-16.365,0.42-16.569
			c-0.033-0.204-0.036-0.59-0.003-0.856c0.036-0.317,7.124-0.509,20.44-0.553l20.383-0.066l0.319,1.449
			c0.47,2.145-0.312,16.049-1.671,29.672c-1.556,15.611-1.938,19.636-2.408,25.454c-0.289,3.565-0.744,9.077-1.012,12.247
			c-2.031,24.065-3.639,44.36-4.297,54.27c-0.535,8.063-1.292,15.618-1.594,15.919c-0.05,0.05-0.368,0.073-0.893,0.073
			c-3.967,0-19.734-1.299-20.441-1.766c-0.246-0.166-1.238-1.488-2.199-2.942c-7.979-12.06-31.176-43.703-32.039-43.703
			c-0.293,0-0.465,5.429-0.458,14.529c0.004,7.99-0.253,18.994-0.569,24.45l-0.575,9.924l-1.414,0.282
			c-0.714,0.143-2.308,0.211-4.399,0.211c-3.15,0-7.432-0.155-11.541-0.45c-2.906-0.207-7.919-0.426-11.145-0.484
			c-3.223-0.061-6.073-0.241-6.334-0.403c-0.543-0.336,0.158-23.103,0.917-29.808c0.255-2.245,0.675-13.158,0.937-24.253
			c0.259-11.094,0.702-29.031,0.982-39.862c0.477-18.377,0.17-35.756-0.76-43.065c-0.24-1.881-0.139-2.321,0.619-2.727
			S208.22,47.894,213.238,47.894 M371.531,48.003c13.697,0,26.297,5.185,36.145,15.228c1.984,2.02,3.729,4.175,3.883,4.788
			c0.305,1.211-0.376,3.291-3.287,10.037c-2.958,6.854-12.044,23.781-13.146,24.491c-0.344,0.222-0.602,0.344-0.877,0.344
			c-0.423,0-0.887-0.286-1.764-0.943c-2.583-1.936-7.695-4.381-10.887-5.209c-1.834-0.475-4.553-0.723-7.162-0.723
			c-2.045,0-4.021,0.152-5.453,0.467c-8.572,1.881-16.875,7.89-19.689,14.252c-2.637,5.963-3.955,15.908-2.9,21.906
			c1.758,10.006,5.112,17.457,10.082,22.396c3.99,3.966,6.681,5.243,11.575,5.243c0.451,0,0.921-0.011,1.412-0.031
			c4.819-0.206,7.093-1.131,9.755-3.962c3.293-3.509,4.454-5.783,4.225-8.302c-0.092-1.016-4.321-2.587-7.739-2.872
			c-1.802-0.153-3.567-0.452-3.919-0.671c-0.502-0.312-0.643-2.568-0.643-10.38c0-5.49,0.164-10.568,0.365-11.282
			c0.352-1.255,1.21-1.747,5.575-1.747c2.239,0,5.399,0.129,9.888,0.352c5.979,0.296,15.719,0.52,22.35,0.52
			c0.415,0,0.816-0.001,1.205-0.003l12.006-0.054l0.324,2.559c0.178,1.405,0.484,7.593,0.678,13.746l0.354,11.194l-2.357-0.271
			c-4.191-0.485-12.778-1.055-15.302-1.055c-0.403,0-0.651,0.014-0.702,0.046c-0.211,0.129-0.504,2.996-0.653,6.372
			c-0.388,8.905-2.297,15.907-5.866,21.508c-1.574,2.474-6.598,7.561-12.477,12.645c-6.881,5.945-15.488,9.146-24.15,9.146
			c-2.288,0-4.578-0.224-6.844-0.679c-9.779-1.964-17.95-6.805-25.27-14.967c-2.084-2.321-4.039-4.438-4.348-4.702
			c-3.744-3.218-10.514-15.275-14.592-25.999c-3.494-9.19-4.018-12.631-3.962-26.11c0.073-18.191,1.7-25.756,8.71-40.48
			c4.874-10.238,8.524-15.161,16.169-21.799c7.595-6.599,10.193-8.18,18.253-11.114C357.642,49.285,364.722,48.003,371.531,48.003
			 M141.476,48.764l19.813,0.312c11.031,0.174,20.367,0.522,21.061,0.786l1.248,0.474l0.01,14.062
			c0.004,7.732,0.209,24.324,0.452,36.871c0.862,44.341,0.737,69.958-0.403,82.846l-0.301,3.363l-1.678,0.017
			c-0.043,0.001-0.104,0.001-0.18,0.001c-1.572,0-10.057-0.104-19.492-0.238h0.001l-17.989-0.262l-0.075-29.295
			c-0.042-16.113-0.318-33.402-0.614-38.422c-0.83-14.13-2.434-65.51-2.125-68.154L141.476,48.764 M127.048,44.698
			c-0.787,0-1.861,0.09-3.83,0.322c-2.422,0.286-9.041,0.754-14.756,1.044c-5.756,0.292-12.996,0.785-16.137,1.1l-5.601,0.563
			c-1.237,0.125-2.175,1.172-2.163,2.415l0.07,7.235c0.038,3.829-0.173,9.061-0.459,11.425c-1.025,8.426-4.856,21.27-8.198,27.485
			c-2.004,3.725-6.721,10.216-8.855,12.186c-0.731,0.675-2.676,1.612-4.063,2.092l0.003-3.893c0.004-3.677-0.21-10.684-0.478-15.621
			c-0.263-4.884-0.822-15.472-1.242-23.529c-0.312-5.965-0.877-15.333-1.158-16.69l-0.346-1.679
			c-0.23-1.118-1.215-1.917-2.354-1.918c-0.007,0-0.015,0-0.022,0l-6.701,0.061c-6.27,0.058-27.329,1.273-35.209,2.031l-3.327,0.32
			c-1.225,0.118-2.163,1.142-2.173,2.372L9.936,65.227c-0.063,7.309-0.349,21.615-0.638,31.89
			c-0.33,11.767-0.407,32.475-0.205,55.395l0.32,36.576c0.01,1.145,0.826,2.123,1.949,2.339l3.885,0.747
			c6.442,1.245,24.759,3.513,31.106,3.851c3.098,0.163,5.164,0.258,6.557,0.258c1.68,0,4.217,0,4.943-2.496
			c0.197-0.678,0.516-2.485,1.817-15.438c0.252-2.505,0.681-6.646,0.953-9.203c0.281-2.637,0.509-6.764,0.509-9.2v-0.455
			c0-2.295-0.001-4.276,0.265-4.745c0.134-0.235,1.655-0.766,2.765-1.153l0.327-0.113c1.63-0.57,5.037-1.879,6.269-2.758
			c0.242-0.172,0.411-0.274,0.524-0.336c0.2,0.172,0.577,0.56,1.234,1.433c5.205,6.928,10.363,19.51,14.15,34.519
			c2.026,8.04,2.569,8.582,2.966,8.978c0.81,0.808,1.854,0.865,3.477,0.865c3.507,0,10.776-0.547,17.286-1.3
			c2.239-0.258,6.123-0.695,8.627-0.967c10.536-1.142,12.148-1.819,13.125-2.992c0.785-0.945,1.857-2.236-2.231-15.647
			c-2.353-7.715-5.384-15.912-8.11-21.928c-5.934-13.091-9.967-20.464-13.078-23.908l-0.246-0.271
			c-0.033-0.035-0.066-0.071-0.1-0.108c0.394-0.599,1.139-1.576,1.966-2.664l0.521-0.685c5.334-7.018,11.18-19.458,13.9-29.58
			c2.439-9.084,3.207-12.12,3.572-14.12c0.215-1.173,0.602-3.068,0.863-4.225c0.658-2.917,1.258-10.813,1.57-16.688
			c0.709-13.332,0.129-14.199-0.337-14.895C129.427,44.698,127.699,44.698,127.048,44.698L127.048,44.698z M213.238,45.491
			c-10.496,0-11.719,0.654-12.18,0.901c-2.364,1.267-2.078,3.511-1.869,5.15c0.918,7.218,1.217,24.378,0.742,42.7
			c-0.289,11.18-0.73,29.064-0.983,39.868c-0.257,10.894-0.679,21.902-0.921,24.037c-0.429,3.786-0.785,11.787-0.961,17.49
			c-0.105,3.396-0.164,6.496-0.164,8.731c-0.003,3.898-0.004,5.075,1.33,5.901c0.482,0.299,1.031,0.64,7.555,0.763
			c3.182,0.058,8.124,0.272,11.02,0.479c3.986,0.286,8.365,0.457,11.711,0.457c3.58,0,4.551-0.194,4.871-0.258l1.412-0.282
			c1.074-0.215,1.867-1.126,1.93-2.219l0.575-9.924c0.32-5.511,0.577-16.542,0.573-24.59c-0.002-3.682,0.023-6.392,0.061-8.385
			c6.883,8.947,21.715,29.343,28.029,38.886c2.006,3.034,2.627,3.452,2.861,3.61c0.568,0.375,1.044,0.689,10.138,1.459
			c4.213,0.356,9.448,0.716,11.646,0.716c0.852,0,1.816,0,2.593-0.777c0.622-0.621,1.212-1.21,2.292-17.459
			c0.652-9.829,2.258-30.101,4.293-54.227c0.268-3.172,0.725-8.688,1.013-12.255c0.466-5.746,0.847-9.783,2.405-25.41
			c1.045-10.488,2.285-27.41,1.627-30.424l-0.32-1.453c-0.243-1.102-1.221-1.886-2.348-1.886c-0.002,0-0.006,0-0.008,0
			l-20.383,0.066c-6.646,0.022-11.779,0.081-15.258,0.175c-1.752,0.048-3.102,0.105-4.012,0.17c-1.24,0.089-3.314,0.239-3.552,2.342
			c-0.041,0.327-0.058,0.848-0.008,1.307c0.001,0.975-0.167,7.701-0.423,16.315c-0.33,11.114-0.324,19.116,0.018,25.184
			c0.065,1.157,0.118,2.23,0.158,3.201c-0.058-0.084-0.117-0.171-0.178-0.259c-1.565-2.275-3.711-5.321-4.785-6.791
			c-1.041-1.427-2.791-3.883-3.898-5.477c-1.59-2.288-2.185-3.049-2.463-3.357c-0.129-0.186-0.467-0.73-0.859-1.458
			c-0.506-0.934-1.398-2.331-2.061-3.084c-0.304-0.351-1.732-2.406-3.364-4.948c-1.532-2.389-4.289-6.375-6.144-8.889
			c-1.58-2.139-2.701-3.723-3.043-4.243c-0.327-0.736-1.186-2.063-3.443-5.274c-3.391-4.824-3.963-5.299-4.178-5.477
			C223.63,46.053,222.953,45.491,213.238,45.491L213.238,45.491z M371.531,45.6c-7.162,0-14.518,1.356-21.859,4.03
			c-8.348,3.039-11.19,4.767-19.007,11.558c-7.856,6.822-11.772,12.098-16.763,22.581c-7.197,15.117-8.869,22.875-8.943,41.504
			c-0.057,13.73,0.521,17.512,4.119,26.975c3.776,9.932,10.814,23.138,15.271,26.968c0.244,0.229,1.842,1.939,4.126,4.484
			c7.638,8.518,16.334,13.659,26.585,15.718c2.395,0.481,4.857,0.726,7.316,0.726c9.324,0,18.459-3.456,25.721-9.731
			c6.148-5.316,11.225-10.487,12.934-13.173c3.793-5.949,5.834-13.373,6.24-22.693c0.075-1.698,0.178-3.098,0.275-4.089
			c3.34,0.123,10.119,0.594,13.703,1.009l2.361,0.271c0.092,0.011,0.184,0.016,0.273,0.016c0.6,0,1.183-0.225,1.629-0.635
			c0.514-0.474,0.796-1.146,0.773-1.845l-0.354-11.194c-0.175-5.546-0.482-12.289-0.695-13.972l-0.324-2.559
			c-0.152-1.202-1.174-2.102-2.385-2.102c-0.003,0-0.006,0-0.01,0l-12.006,0.054c-0.386,0.002-0.784,0.002-1.195,0.002
			c-6.617,0-16.382-0.227-22.23-0.516c-4.297-0.213-7.645-0.355-10.007-0.355c-3.915,0-6.983,0.259-7.89,3.505
			c-0.441,1.559-0.454,10.872-0.454,11.929c0,9.896,0.109,11.387,1.778,12.422c0.742,0.461,2.419,0.806,4.982,1.023
			c2.229,0.187,4.52,0.946,5.549,1.47c-0.131,1.298-0.959,2.87-3.582,5.665c-2.066,2.197-3.603,3.013-8.105,3.205
			c-0.455,0.02-0.891,0.029-1.31,0.029c-4.167,0-6.29-0.977-9.88-4.545c-4.584-4.555-7.75-11.656-9.41-21.107
			c-0.979-5.563,0.273-14.958,2.732-20.518c2.492-5.636,10.232-11.172,18.005-12.877c1.188-0.261,2.988-0.411,4.938-0.411
			c2.508,0,5.021,0.248,6.56,0.646c2.909,0.754,7.698,3.045,10.048,4.806c1.076,0.807,1.996,1.423,3.205,1.423
			c0.932,0,1.654-0.389,2.18-0.728c0.568-0.365,1.348-0.867,6.692-10.825c3.098-5.771,5.985-11.554,7.358-14.734
			c3.143-7.282,3.922-9.542,3.412-11.573c-0.399-1.585-3.279-4.646-4.5-5.888C399.16,51.115,386.068,45.6,371.531,45.6L371.531,45.6
			z M141.476,46.36c-1.219,0-2.246,0.913-2.388,2.126l-0.274,2.359c-0.354,3.041,1.352,55.609,2.114,68.572
			c0.294,4.987,0.567,22.162,0.61,38.288l0.075,29.294c0.003,1.312,1.058,2.378,2.368,2.397l17.989,0.262
			c9.339,0.134,17.915,0.238,19.526,0.238l0.207-0.001l1.675-0.017c1.235-0.012,2.261-0.959,2.37-2.189l0.3-3.363
			c1.151-13,1.278-38.63,0.413-83.106c-0.246-12.626-0.448-29.146-0.452-36.825L186,50.333c-0.001-0.998-0.618-1.892-1.55-2.246
			l-1.248-0.474c-1.354-0.515-12.644-0.796-21.875-0.942l-19.814-0.312C141.501,46.36,141.488,46.36,141.476,46.36L141.476,46.36z"
			/>
	</g>
	<g>
		<path fill="#EC2024" d="M591.226,178.358c-0.462,0-0.984-0.011-1.574-0.022l-0.339-0.007c-2.631-0.053-10.014-0.305-16.458-0.561
			c-4.509-0.18-12.207-0.556-13.122-1.055c-1.369-0.735-1.481-0.796-1.69-28.049c-0.21-27.277-0.21-27.277,1.516-28.169
			c0.32-0.166,0.64-0.269,3.021-0.269c6.271,0,22.474,0.754,28.172,1.405l2.205,0.251c0.657,0.074,1.16,0.619,1.184,1.28
			l0.248,7.051c0.268,7.575-0.256,8.171-0.536,8.49c-0.35,0.389-0.862,0.959-9.782,1.003c-4.012,0.021-6.911,0.036-7.937,0.539
			c-0.435,0.214-0.553,0.604-0.553,2.939c0,2.018,0.104,2.603,0.503,2.844c0.797,0.481,3.048,0.611,6.391,0.755l6.775,0.293
			c0.715,0.031,1.278,0.619,1.278,1.335v2.269c0,0.954,0,3.189-1.703,3.84c-1.048,0.4-5.954,0.412-6.51,0.412
			c-1.721,0-4.602,0-5.023,0.53c-0.379,0.477,0.188,2.935,0.493,4.256c0.707,3.054,0.765,3.303,9.171,3.818
			c3.505,0.212,7.869,0.62,8.748,1.353c1.085,0.898,1.146,2.452,0.875,5.819l-0.034,0.407
			C596.101,176.534,595.953,178.358,591.226,178.358z M477.775,177.952c-1.523,0-5.219-0.105-6.602-1.076
			c-1.646-1.151-1.689-2.404-2.017-12.156c-0.19-5.697-0.603-13.404-0.918-17.182c-0.331-3.964-0.532-6.356-1.347-7.277
			c-0.725-0.82-2.516-1.022-6.174-1.369c-0.249-0.023-6.076-0.587-7.311-1.242c-1.74-0.938-1.715-2.22-1.576-9.331l0.148-7.583
			c0.016-0.729,0.609-1.31,1.336-1.31c0.008,0,10.7,0.175,10.7,0.175c5.794,0.095,15.862,0.335,22.444,0.536l11.744,0.358
			c0.679,0.021,1.233,0.547,1.29,1.223l0.18,2.136c0.106,1.257,0.028,4.656-0.178,7.737l-0.361,5.396
			c-0.044,0.663-0.569,1.193-1.232,1.243l-4.889,0.37c-7.841,0.592-9.014,2.028-8.968,10.984c0.016,3.18,0.342,7.729,0.729,10.142
			c0.673,4.229,0.59,13.965-0.371,16.462C484.185,176.76,483.728,177.952,477.775,177.952z M543.524,177.731
			c-6.666,0.001-6.928-0.266-7.323-0.67c-0.017-0.017-0.033-0.034-0.049-0.052c-0.078-0.082-0.152-0.178-0.22-0.344
			c-0.036-0.082-0.064-0.168-0.083-0.255c-0.189-0.717-0.313-2.301-0.313-6.317l0.002-1.184c0.007-2.887,0.012-4.794-0.509-5.336
			c-0.526-0.549-2.457-0.641-5.379-0.779l-2.022-0.1c-1.612-0.083-2.886-0.148-3.882-0.148c-1.671,0-2.115,0.208-2.231,0.332
			c-0.362,0.388-0.238,2.249-0.096,4.403l0.044,0.663c0.321,4.852,0.333,5.813-1.189,7.341c-1.04,1.043-2.649,1.549-4.919,1.55
			c-1.12,0-2.387-0.12-3.874-0.365c-2.67-0.444-3.024-1.196-3.383-4.224c-0.723-6.111-2.987-42.396-2.991-47.933l-0.006-2.854
			c-0.001-0.362,0.146-0.708,0.404-0.961c0.25-0.242,0.584-0.378,0.932-0.378c0.013,0,7.252,0.214,7.252,0.214
			c7.154,0.217,8.207,0.704,8.775,1.272c0.754,0.759,1.059,2.071,1.059,12.178c0,3.293,0,9.318,0.414,10.54
			c0.596,0.246,2.53,0.552,5.462,0.552c2.962,0,4.904-0.313,5.471-0.56c0.408-1.092,0.468-7.557,0.493-10.354
			c0.101-10.933,0.4-11.23,0.813-11.642c0.24-0.24,0.979-0.979,7.109-0.979c1.044,0,2.514,0.033,3.586,0.194l2.348,0.352
			c0.638,0.096,1.116,0.634,1.137,1.278l0.332,10.253c0.184,5.642,0.48,17.574,0.661,26.601l0.33,16.329
			c0.007,0.358-0.13,0.705-0.381,0.961c-0.25,0.257-0.593,0.401-0.951,0.402L543.524,177.731z M504.368,111.499
			c-2.82,0-4.805-0.227-7.32-0.839c-8.271-2.005-13.092-5.084-16.64-10.627c-2.252-3.517-4.412-9.837-4.918-14.388
			c-0.549-4.957,0.574-12.096,2.555-16.253c2.004-4.209,6.751-8.848,11.288-11.029c3.783-1.816,10.573-2.927,18.165-2.971
			l0.929-0.003c4.27,0,5.613,0.238,8.99,1.593c8.186,3.285,11.752,7.565,13.628,16.358c3.002,14.053-3.424,30.313-14.324,36.246
			c-2.539,1.382-3.751,1.622-9.265,1.843C506.298,111.475,505.285,111.499,504.368,111.499z M505.83,74.314
			c-6.1,0-10.302,4.328-10.705,11.025c-0.169,2.788-0.065,3.288,1.109,5.356c1.521,2.679,2.831,3.798,5.612,4.789
			c1.216,0.432,2.333,0.642,3.416,0.642c1.209,0,2.371-0.266,3.552-0.812c3.997-1.852,6.688-6.249,6.695-10.941
			c0.007-2.552-0.139-3.047-1.421-4.82C511.748,76.322,508.583,74.314,505.83,74.314z M553.947,110.913
			c-1.02,0-4.504-0.064-8.105-0.149l-7.284-0.176c-0.73-0.018-1.312-0.619-1.304-1.351l0.279-26.01
			c0.278-26.458,0.278-26.458,0.659-26.944c0.547-0.688,0.771-0.97,22.62-1.52c0,0,15.192-0.38,15.203-0.38
			c0.362,0,0.709,0.147,0.961,0.408c0.26,0.269,0.396,0.635,0.373,1.008l-0.365,6.033c-0.391,6.377-0.711,6.895-0.848,7.117
			c-0.306,0.49-0.683,1.094-6.062,1.099c-4.424,0.004-9.444,0.685-10.866,1.116c-0.129,0.597-0.331,1.855-0.487,3.602
			c-0.311,3.449-0.254,3.505,0.44,4.199c0.538,0.538,0.667,0.667,2.344,0.667c0.775,0,1.822-0.04,3.261-0.104
			c3.1-0.139,5.407-0.387,5.816-0.505c0.277-0.123,0.68-0.201,1.097-0.201c0.586,0,1.145,0.151,1.573,0.426
			c1.761,1.12,1.985,9.074,1.547,10.817c-0.597,2.393-2.05,2.408-4.688,2.435c-1.598,0.017-5.085,0.451-7.614,0.947
			c-5.472,1.071-5.472,1.071-5.781,9.479c-0.228,6.245-0.289,7.924-2.531,7.985L553.947,110.913z"/>
		<path d="M576.015,55.719h0.005 M576.015,55.719l-0.365,6.033c-0.203,3.319-0.494,6.242-0.65,6.495
			c-0.158,0.253-2.373,0.462-4.926,0.465c-4.721,0.004-11.281,0.826-11.949,1.495c-0.201,0.203-0.533,2.201-0.734,4.439
			c-0.338,3.761-0.275,4.161,0.826,5.263c0.799,0.798,1.247,1.058,3.289,1.058c0.813,0,1.879-0.042,3.32-0.106
			c2.975-0.133,5.773-0.397,6.215-0.586c0.186-0.08,0.411-0.118,0.639-0.118c0.314,0,0.632,0.073,0.852,0.214
			c0.801,0.509,1.502,7.263,0.973,9.366c-0.322,1.293-0.566,1.396-3.406,1.425c-1.684,0.018-5.223,0.455-7.857,0.972
			c-6.285,1.23-6.523,1.602-6.859,10.742c-0.221,6.049-0.336,6.674-1.232,6.698c-0.046,0.001-0.113,0.002-0.201,0.002
			c-0.969,0-4.402-0.063-8.074-0.149l-7.283-0.176l0.279-26.011c0.15-14.306,0.322-26.067,0.375-26.135
			c0.248-0.312,7.654-0.657,21.602-1.008L576.015,55.719 M508.426,56.725c4.199,0,5.339,0.231,8.493,1.497
			c7.764,3.116,11.037,7.049,12.818,15.397c2.863,13.402-3.33,29.173-13.656,34.793c-2.316,1.261-3.396,1.471-8.68,1.682
			c-1.137,0.045-2.134,0.069-3.034,0.069c-2.79,0-4.669-0.233-7.005-0.801c-7.93-1.923-12.477-4.81-15.83-10.05
			c-2.15-3.358-4.23-9.456-4.715-13.814c-0.518-4.678,0.568-11.618,2.434-15.531c1.869-3.93,6.406-8.354,10.66-10.399
			c3.598-1.728,10.217-2.796,17.594-2.839C507.829,56.726,508.135,56.725,508.426,56.725 M505.262,97.462
			c1.408,0,2.764-0.311,4.112-0.935v-0.001c4.441-2.056,7.463-6.972,7.471-12.15c0.008-2.839-0.223-3.597-1.674-5.604
			c-2.602-3.591-6.152-5.792-9.342-5.792c-6.795,0-11.594,4.896-12.039,12.28c-0.184,3.034-0.023,3.799,1.281,6.096
			c1.674,2.949,3.246,4.29,6.326,5.387C502.747,97.222,504.025,97.462,505.262,97.462 M453.316,120.762l10.678,0.175
			c5.875,0.096,15.965,0.338,22.426,0.535l11.744,0.358l0.18,2.136c0.1,1.173,0.02,4.563-0.18,7.536l-0.361,5.396l-4.889,0.37
			c-8.557,0.646-10.252,2.693-10.203,12.323c0.016,3.23,0.352,7.884,0.744,10.346c0.682,4.274,0.506,13.685-0.297,15.771
			c-0.23,0.6-2.758,0.906-5.383,0.906c-2.476,0-5.037-0.273-5.834-0.833c-1.025-0.717-1.125-1.48-1.449-11.107
			c-0.189-5.687-0.604-13.447-0.922-17.248c-0.758-9.065-0.805-9.115-8.727-9.865c-3.186-0.305-6.248-0.795-6.811-1.093
			c-0.932-0.503-1.002-1.14-0.865-8.124L453.316,120.762 M506.437,121.458l7.213,0.213c4.791,0.146,7.43,0.442,7.871,0.883
			c0.484,0.488,0.666,3.521,0.666,11.232c0,8.168,0.164,10.765,0.729,11.451c0.539,0.651,3.513,0.977,6.483,0.977
			c2.967,0,5.931-0.325,6.47-0.975c0.557-0.67,0.758-3.363,0.83-11.264c0.053-5.712,0.242-10.529,0.42-10.706
			c0.35-0.35,3.421-0.59,6.167-0.59c1.315,0,2.557,0.055,3.388,0.18l2.348,0.352l0.332,10.253c0.184,5.64,0.48,17.604,0.66,26.584
			l0.33,16.33l-6.451,0.018c-0.123,0-0.246,0-0.368,0c-3.388,0-6.22-0.116-6.37-0.27h0.004c-0.158-0.153-0.285-2.872-0.285-6.032
			c0-8.71,0.438-8.251-8.359-8.691c-2.013-0.102-3.569-0.191-4.767-0.191c-4.239,0-3.987,1.123-3.616,6.821
			c0.318,4.813,0.258,5.247-0.803,6.311c-0.771,0.773-2.082,1.157-3.973,1.157c-1.041,0-2.257-0.116-3.656-0.348
			c-1.893-0.314-1.959-0.402-2.273-3.063c-0.719-6.075-2.979-42.263-2.982-47.776L506.437,121.458 M562.579,121.563
			c6.182,0,22.398,0.754,28.021,1.396l2.205,0.251l0.248,7.051c0.137,3.876,0.043,7.279-0.205,7.562
			c-0.252,0.28-4.203,0.526-8.785,0.549c-9.623,0.051-9.818,0.146-9.818,4.814c0,4.392,0.338,4.597,8.172,4.934l6.775,0.293v2.269
			c0,1.575-0.256,2.367-0.844,2.592c-0.465,0.178-3.18,0.324-6.033,0.324c-6.844,0-7.219,0.41-5.832,6.422
			c0.912,3.941,1.721,4.32,10.391,4.852c3.988,0.242,7.576,0.714,7.975,1.046c0.557,0.461,0.65,1.57,0.398,4.686
			c-0.474,5.768-0.438,6.42-4.02,6.42c-0.541,0-1.165-0.015-1.887-0.029c-2.578-0.052-9.971-0.303-16.432-0.56
			c-6.461-0.258-12.102-0.656-12.535-0.893c-0.678-0.364-0.82-4.205-0.994-26.886c-0.195-25.375-0.164-26.478,0.793-26.972
			C560.332,121.601,561.209,121.563,562.579,121.563 M576.015,53.047c-0.012,0-0.022,0-0.034,0c-0.014,0-0.028,0-0.042,0.001
			l-15.16,0.38c-22.474,0.565-22.627,0.759-23.627,2.016c-0.582,0.744-0.585,0.912-0.64,3.711c-0.025,1.339-0.057,3.267-0.091,5.641
			c-0.073,5.042-0.152,11.583-0.225,18.417l-0.279,26.011c-0.016,1.461,1.146,2.664,2.607,2.699l7.283,0.176
			c3.613,0.086,7.111,0.15,8.139,0.15c0.114,0,0.203-0.001,0.263-0.003c1.07-0.028,2.924-0.493,3.436-3.277
			c0.199-1.081,0.286-2.723,0.405-5.994c0.111-3.012,0.226-6.127,0.78-6.997c0.307-0.479,1.888-0.822,3.922-1.221
			c2.466-0.484,5.841-0.906,7.373-0.922c2.635-0.027,5.124-0.053,5.971-3.451c0.461-1.832,0.208-4.948,0.077-6.203
			c-0.479-4.607-1.317-5.497-2.209-6.063c-0.632-0.406-1.446-0.632-2.285-0.632c-0.521,0-1.034,0.088-1.496,0.257
			c-0.585,0.114-2.759,0.329-5.477,0.45c-1.42,0.064-2.45,0.104-3.201,0.104c-0.769,0-1.074-0.044-1.181-0.067
			c-0.037-0.032-0.104-0.093-0.22-0.209c-0.107-0.107-0.173-0.177-0.212-0.221c-0.058-0.507,0.081-2.056,0.158-2.913
			c0.098-1.082,0.215-1.984,0.316-2.626c1.896-0.38,6.049-0.873,9.708-0.875c5.707-0.005,6.523-0.654,7.19-1.722
			c0.318-0.515,0.64-1.036,1.051-7.747L578.675,56c0.01-0.092,0.015-0.186,0.015-0.281c0-1.476-1.194-2.672-2.669-2.672
			C576.019,53.047,576.017,53.047,576.015,53.047L576.015,53.047z M508.426,54.053c-0.297,0-0.608,0.001-0.938,0.003
			c-7.778,0.045-14.782,1.205-18.733,3.103c-4.785,2.3-9.797,7.204-11.917,11.66c-2.073,4.348-3.249,11.804-2.677,16.973
			c0.534,4.805,2.735,11.236,5.121,14.961c3.753,5.864,8.809,9.11,17.45,11.206c2.628,0.639,4.698,0.876,7.635,0.876
			c0.901,0,1.928-0.023,3.141-0.071c5.309-0.212,6.97-0.437,9.851-2.005c11.384-6.195,18.109-23.107,14.992-37.698
			c-1.961-9.188-5.873-13.882-14.437-17.318C514.373,54.321,512.866,54.053,508.426,54.053L508.426,54.053z M505.262,94.79
			c-0.928,0-1.899-0.185-2.97-0.565c-2.479-0.883-3.532-1.784-4.896-4.188c-1.008-1.773-1.096-2.011-0.938-4.616
			c0.358-5.936,4.037-9.77,9.372-9.77c2.298,0,5.115,1.84,7.178,4.688c1.073,1.484,1.173,1.689,1.166,4.03
			c-0.006,4.121-2.441,8.122-5.921,9.732c-0.022,0.01-0.045,0.021-0.067,0.032C507.208,94.575,506.25,94.79,505.262,94.79
			L505.262,94.79z M453.316,118.09c-1.452,0-2.643,1.162-2.671,2.619l-0.149,7.583c-0.145,7.44-0.18,9.208,2.27,10.528
			c1.355,0.72,5.923,1.219,7.824,1.401c2.407,0.228,4.895,0.463,5.303,0.925c0.521,0.588,0.761,3.461,1.016,6.503
			c0.314,3.759,0.724,11.437,0.914,17.115c0.348,10.344,0.393,11.673,2.588,13.207c1.242,0.872,3.721,1.316,7.365,1.316
			c5.704,0,7.274-1.049,7.877-2.623c1.112-2.891,1.088-13.092,0.441-17.147c-0.37-2.318-0.695-6.869-0.71-9.938
			c-0.023-4.384,0.354-6.72,1.26-7.814c0.843-1.018,2.718-1.549,6.472-1.832l4.89-0.37c1.325-0.1,2.375-1.159,2.464-2.485
			l0.361-5.396c0.185-2.752,0.301-6.474,0.176-7.941l-0.18-2.133c-0.113-1.354-1.224-2.405-2.581-2.447l-11.744-0.358
			c-6.587-0.201-16.663-0.441-22.463-0.536l-10.677-0.175C453.345,118.09,453.33,118.09,453.316,118.09L453.316,118.09z
			 M506.437,118.786c-0.695,0-1.363,0.271-1.863,0.757c-0.519,0.504-0.811,1.197-0.809,1.921l0.006,2.855
			c0.004,5.551,2.275,41.954,3.001,48.084c0.389,3.29,0.931,4.794,4.489,5.385c1.562,0.258,2.9,0.384,4.094,0.384
			c2.643,0,4.561-0.636,5.864-1.942c1.999-2.004,1.893-3.608,1.577-8.374l-0.044-0.662c-0.08-1.206-0.169-2.54-0.131-3.265
			c0.236-0.024,0.593-0.046,1.125-0.046c0.962,0,2.221,0.064,3.813,0.146l0.818,0.042l1.209,0.059
			c1.858,0.088,3.775,0.179,4.443,0.397c0.181,0.67,0.177,2.554,0.172,4.38l-0.002,1.187c0,6.603,0.295,7.161,1.004,7.859
			c0.014,0.015,0.028,0.03,0.042,0.045c0.765,0.778,1.051,1.07,8.277,1.07l0.375-0.001l6.451-0.018
			c0.717-0.002,1.403-0.292,1.904-0.805s0.774-1.204,0.761-1.921l-0.33-16.33c-0.182-9.03-0.478-20.972-0.661-26.617l-0.332-10.253
			c-0.042-1.289-0.999-2.364-2.275-2.556l-2.348-0.352c-1.152-0.173-2.693-0.209-3.783-0.209c-6.684,0-7.543,0.859-8.057,1.372
			c-0.841,0.837-1.096,1.091-1.202,12.571c-0.02,2.107-0.066,7.247-0.328,9.291c-0.802,0.145-2.246,0.3-4.3,0.3
			s-3.5-0.155-4.305-0.3c-0.235-2.021-0.235-7.105-0.235-9.456c0-10.516-0.292-11.956-1.441-13.114
			c-0.89-0.888-1.979-1.438-9.687-1.672l-7.215-0.213C506.49,118.786,506.463,118.786,506.437,118.786L506.437,118.786z
			 M562.58,118.892c-2.327,0-2.974,0.074-3.641,0.421c-2.109,1.09-2.176,3.337-2.267,6.448c-0.103,3.465-0.068,9.644,0.034,22.915
			c0.083,10.795,0.16,17.838,0.31,21.89c0.163,4.391,0.31,6.371,2.092,7.329c0.449,0.245,1.311,0.715,13.693,1.209
			c6.451,0.257,13.847,0.508,16.484,0.562l0.336,0.007c0.602,0.012,1.134,0.022,1.604,0.022c5.958,0,6.218-3.188,6.649-8.469
			l0.033-0.404c0.275-3.406,0.321-5.572-1.357-6.962c-0.483-0.403-1.394-1.162-9.517-1.655c-3.278-0.201-6.079-0.407-7.136-0.901
			c-0.246-0.114-0.423-0.197-0.813-1.886c-0.148-0.643-0.496-2.147-0.569-2.995c0.965-0.152,2.888-0.152,3.798-0.152
			c2.121,0,5.849-0.064,6.987-0.5c2.562-0.979,2.562-3.964,2.562-5.088v-2.269c0-1.431-1.127-2.607-2.557-2.67l-6.775-0.292
			c-1.869-0.081-4.61-0.199-5.548-0.482c-0.067-0.477-0.067-1.396-0.067-1.782c0-0.504,0-1.357,0.057-1.828
			c1.084-0.282,4.267-0.3,7.104-0.314c9.511-0.047,10.034-0.629,10.759-1.435c0.613-0.697,1.174-1.336,0.888-9.441l-0.248-7.051
			c-0.046-1.322-1.054-2.411-2.368-2.562l-2.205-0.251C585.168,119.649,568.879,118.892,562.58,118.892L562.58,118.892z"/>
	</g>
</g>
</svg>
